<?xml version="1.0" standalone="no"?>
<!DOCTYPE svg PUBLIC "-//W3C//DTD SVG 20010904//EN"
 "http://www.w3.org/TR/2001/REC-SVG-20010904/DTD/svg10.dtd">
<svg version="1.0" xmlns="http://www.w3.org/2000/svg"
 width="225.000000pt" height="225.000000pt" viewBox="0 0 225.000000 225.000000"
 preserveAspectRatio="xMidYMid meet">
<metadata>
Created by potrace 1.14, written by Peter Selinger 2001-2017
</metadata>
<g transform="translate(0.000000,225.000000) scale(0.100000,-0.100000)"
fill="#000000" stroke="none">
<path d="M0 1125 l0 -1125 1125 0 1125 0 0 1125 0 1125 -1125 0 -1125 0 0
-1125z m1253 620 c50 -58 48 -57 -44 27 l-95 86 -92 -90 c-51 -50 -92 -94 -92
-99 0 -4 41 -46 92 -93 l92 -86 61 58 c119 114 138 125 54 33 -47 -52 -92 -99
-100 -104 -11 -7 -36 13 -103 80 -48 48 -85 79 -81 68 23 -69 126 -418 123
-420 -2 -2 -40 103 -85 234 l-81 238 106 106 107 107 43 -43 c24 -23 67 -69
95 -102z m-533 -40 c146 -20 160 -23 160 -37 0 -6 45 -142 100 -300 97 -282
108 -318 93 -318 -9 0 -410 293 -427 311 -6 7 12 -3 39 -23 176 -123 337 -229
330 -217 -5 8 -25 34 -45 59 -20 25 -60 81 -89 125 l-52 80 46 -50 c25 -27 73
-88 107 -135 34 -47 59 -78 56 -70 -3 8 -41 120 -84 247 -44 128 -82 233 -85
233 -3 0 -11 -44 -18 -98 -7 -55 -17 -105 -21 -112 -7 -11 -23 -11 -97 0 -100
16 -90 26 12 12 47 -6 68 -6 70 2 11 31 34 241 27 246 -8 7 -242 43 -247 38
-2 -2 -11 -37 -19 -78 l-16 -75 6 70 c6 85 12 105 28 105 6 0 63 -7 126 -15z
m933 8 c3 -5 7 -44 11 -88 l5 -80 -14 74 c-8 40 -16 75 -18 78 -6 5 -233 -28
-246 -36 -12 -8 22 -257 35 -255 5 1 43 4 84 7 l75 6 -65 -14 c-36 -8 -75 -14
-87 -15 -12 0 -29 -10 -38 -22 -51 -73 -148 -207 -167 -232 -15 -20 33 8 152
89 96 65 168 111 160 103 -21 -22 -373 -278 -382 -278 -5 0 -8 5 -8 12 0 18
201 602 212 613 5 6 59 17 121 26 133 19 164 21 170 12z m-398 -248 c-74 -248
-144 -441 -145 -399 0 5 -2 59 -5 119 -2 61 0 146 4 190 l7 80 7 -96 c5 -53 6
-132 3 -175 l-6 -79 31 95 c50 158 142 421 145 417 2 -1 -17 -70 -41 -152z
m-698 43 c-3 -7 -5 -2 -5 12 0 14 2 19 5 13 2 -7 2 -19 0 -25z m1120 10 c-3
-8 -6 -5 -6 6 -1 11 2 17 5 13 3 -3 4 -12 1 -19z m-521 -504 c41 -32 38 -42
-5 -19 -25 12 -36 13 -54 4 -45 -24 -49 -30 -30 -53 10 -12 11 -15 3 -8 -8 6
-18 12 -22 12 -4 0 -8 -96 -8 -214 l0 -215 29 -20 c16 -12 32 -21 35 -21 3 0
7 84 8 188 l1 187 8 -130 c3 -71 7 -156 8 -188 l1 -58 30 18 30 17 0 162 c0
88 3 189 7 224 l6 63 -39 -27 c-41 -28 -59 -32 -69 -16 -3 5 0 7 9 4 8 -3 32
6 55 20 22 14 43 26 46 26 3 0 5 -105 5 -233 l0 -234 -44 -31 c-24 -18 -48
-32 -52 -32 -4 0 -27 17 -52 37 l-44 36 4 230 4 229 40 34 c21 18 43 33 47 34
5 0 24 -12 43 -26z m-503 -642 c-6 -4 -13 -28 -16 -52 l-4 -45 -1 47 c-2 35
-6 48 -19 51 -10 3 -2 5 17 6 19 0 30 -3 23 -7z m132 -39 l8 -38 14 43 c17 49
28 47 38 -5 l8 -38 14 43 c19 55 26 50 10 -6 -16 -54 -28 -57 -40 -12 l-10 35
-17 -40 c-12 -26 -20 -35 -23 -25 -11 31 -27 83 -27 87 0 2 4 2 9 -1 5 -3 12
-23 16 -43z m242 20 c15 1 30 -5 37 -15 17 -27 -4 -53 -43 -53 -31 -1 -31 0
-30 50 1 27 3 42 6 33 3 -11 13 -16 30 -15z m127 21 c9 -3 16 -11 16 -17 0 -7
-4 -7 -12 1 -18 18 -46 14 -58 -8 -22 -42 30 -82 59 -46 10 12 8 15 -11 19
-20 4 -20 4 5 6 30 1 34 -10 11 -33 -23 -23 -51 -20 -70 9 -15 23 -15 27 0 50
17 25 31 30 60 19z m-447 -27 c-9 -7 -18 -25 -20 -42 -3 -25 -4 -23 -6 10 -1
35 2 41 20 42 19 2 19 0 6 -10z m30 -49 c-2 -13 -4 -3 -4 22 0 25 2 35 4 23 2
-13 2 -33 0 -45z m231 37 c2 -18 2 -18 -8 -2 -16 25 -37 21 -42 -8 -6 -30 4
-39 33 -30 15 5 19 4 15 -4 -16 -26 -66 -4 -66 29 0 40 62 54 68 15z m292 10
c7 -9 10 -19 6 -23 -4 -4 -12 1 -17 11 -17 29 -39 21 -39 -14 0 -29 2 -31 26
-25 17 5 23 3 19 -4 -11 -17 -44 -11 -55 10 -23 42 30 81 60 45z m35 -25 c-3
-47 -15 -48 -15 -1 0 23 4 40 9 37 5 -3 8 -19 6 -36z m51 -5 c1 -28 0 -31 -3
-10 -2 17 -12 36 -21 43 -16 13 -15 14 3 10 16 -2 20 -12 21 -43z m78 39 c9
-3 16 -13 16 -22 0 -13 -2 -13 -14 3 -18 25 -49 13 -44 -17 2 -19 9 -23 33
-21 28 1 29 1 8 -9 -39 -19 -72 29 -41 60 14 14 20 14 42 6z m80 -3 c4 -5 -4
-7 -16 -3 -17 4 -20 2 -15 -11 4 -10 2 -17 -3 -17 -11 0 -13 23 -3 33 9 10 31
9 37 -2z m110 0 c4 -5 -4 -7 -16 -3 -17 4 -20 2 -15 -11 4 -10 2 -17 -3 -17
-11 0 -13 23 -3 33 9 10 31 9 37 -2z m-64 -31 c0 -16 -4 -30 -10 -30 -5 0 -10
14 -10 30 0 17 5 30 10 30 6 0 10 -13 10 -30z m-40 -15 c0 -20 -28 -31 -42
-17 -8 8 -4 9 12 5 19 -5 22 -3 17 10 -4 10 -2 17 3 17 6 0 10 -7 10 -15z
m110 0 c0 -20 -28 -31 -42 -17 -8 8 -4 9 12 5 19 -5 22 -3 17 10 -4 10 -2 17
3 17 6 0 10 -7 10 -15z"/>
<path d="M1275 1373 c-44 -130 -82 -242 -84 -248 -2 -5 16 17 40 50 23 33 71
95 106 137 l63 77 -18 110 c-9 61 -19 111 -22 111 -3 0 -41 -107 -85 -237z"/>
<path d="M1010 335 c-11 -13 -11 -19 3 -32 21 -21 49 -9 45 19 -4 28 -30 35
-48 13z"/>
</g>
</svg>
